<?xml version="1.0"?><svg xmlns="http://www.w3.org/2000/svg"  viewBox="0 0 30 30" width="30px" height="30px">    <path d="M 9.7890625 4 C 7.6420625 4 6 4.8943906 6 5.5253906 C 6 6.4194383 7.5771895 6.143928 8.8027344 7.4941406 C 5.7174661 9.9535825 5 13.547886 5 15 C 5 18.332 5.8964844 21.306641 5.8964844 21.306641 C 3.6804844 22.002641 3.1205313 23.644484 3.0195312 26.021484 C 2.9995312 26.487484 3.4714375 26.821766 3.8984375 26.634766 C 5.1184375 26.100766 7.185 25.059 7.5 24 C 8.217 25.117 10.125891 25.649141 11.212891 25.869141 C 11.628891 25.953141 12.002844 25.605594 11.964844 25.183594 C 11.746844 22.734594 10.531 21.512641 9 21.306641 C 9 16.692188 11.78444 14.708965 15.65625 14.166016 C 15.389488 16.213195 14.503589 17 15.371094 17 C 17.6345 17 18.774498 15.414755 19.328125 14 L 23.210938 14 C 25.231937 14 27 13.716469 27 12.730469 C 27 12.098469 26.768 11.625141 25 10.994141 C 25 8.8971406 22.898 5 17 5 C 15.796267 5 14.718798 5.1161086 13.738281 5.3085938 C 12.69589 4.575023 11.103697 4 9.7890625 4 z"/></svg>